<svg width="32" height="32" viewBox="0 0 32 32" fill="none" xmlns="http://www.w3.org/2000/svg">
<path d="M11.4933 26.6357C10.2599 24.7571 9.61478 22.5939 9.61478 20.3359C9.61478 20.3169 9.61478 20.279 9.61478 20.26C9.53888 20.2031 9.444 20.1651 9.3681 20.1082C8.30548 19.2922 7.37569 18.3055 6.61668 17.167C5.68689 15.7628 5.09866 14.1689 4.87096 12.5181C2.51802 14.3207 1 17.148 1 20.3359C1 22.3283 1.58823 24.1879 2.6129 25.7249C3.25806 26.6926 4.05502 27.5655 4.98481 28.2486C5.64894 28.7419 6.35103 29.1404 7.12902 29.463C8.28651 29.9374 9.55785 30.203 10.8861 30.203C12.0816 30.203 13.2391 29.9753 14.3017 29.5768C14.3017 29.5768 14.2827 29.5768 14.2827 29.5579C13.1821 28.7799 12.2523 27.7742 11.4933 26.6357Z" fill="white"/>
<path d="M29.0642 14.4535C28.6277 13.8843 28.1344 13.3719 27.5841 12.8975C26.9959 16.1423 25.0604 18.9127 22.3659 20.6015C21.8346 20.9431 21.2653 21.2467 20.6581 21.4933C19.2919 22.0626 17.8118 22.3662 16.2558 22.3662C14.7378 22.3662 13.2767 22.0816 11.8726 21.5123C11.6828 21.4364 11.512 21.3226 11.3223 21.2467C11.4741 22.8975 12.0054 24.4155 12.8593 25.7248C13.5044 26.6926 14.3014 27.5654 15.2312 28.2485C15.4779 28.4383 15.7435 28.5901 15.9902 28.7419C16.4266 29.0076 16.882 29.2542 17.3754 29.463C17.4703 29.5009 17.5841 29.5389 17.698 29.5768C18.7606 29.9753 19.9181 30.203 21.1325 30.203C26.5784 30.203 30.9996 25.7818 30.9996 20.3358C31.0186 18.1347 30.2976 16.1044 29.0642 14.4535Z" fill="white"/>
<path fill-rule="evenodd" clip-rule="evenodd" d="M24.2069 4.96583C25.2505 6.38898 25.9336 8.09676 26.1044 9.95633C26.1234 10.2599 26.1424 10.5635 26.1613 10.8861C26.1613 11.2087 26.1424 11.5123 26.1044 11.8349C25.8198 14.6243 24.3777 17.0721 22.2714 18.7039C21.797 19.0645 21.2847 19.387 20.7344 19.6717C19.3872 20.3358 17.8881 20.7343 16.2752 20.7343C14.947 20.7343 13.6756 20.4686 12.5181 19.9943C12.1007 19.8235 11.7022 19.6337 11.3227 19.406C11.0001 19.2163 10.6775 19.0075 10.3739 18.7988C10.2459 18.6964 10.1265 18.5854 10.0041 18.4715C9.94512 18.4166 9.88533 18.361 9.82363 18.3055C9.14052 17.7172 8.49536 17.0341 8.002 16.2751C7.11016 14.8899 6.55988 13.277 6.44603 11.5313C6.43948 11.4527 6.43067 11.3763 6.42193 11.3007C6.40537 11.1572 6.3891 11.0162 6.3891 10.8671C6.3891 10.4687 6.42705 10.0892 6.465 9.70965C6.93939 5.72484 9.78568 2.4611 13.5618 1.37951C14.4156 1.13283 15.3265 1 16.2752 1C18.2676 1 20.1082 1.58823 21.6832 2.59392C22.6509 3.22011 23.5048 4.03605 24.2069 4.96583ZM15.3203 9.11999C15.5937 9.32941 15.9034 9.47977 16.2271 9.60865L16.4168 9.68416C16.9123 9.88101 17.4088 10.0782 17.8789 10.3282C19.5697 11.2277 20.0245 13.2709 18.8303 14.6671C18.4006 15.1718 17.8426 15.5101 17.1869 15.682C16.9023 15.7571 16.7739 15.9021 16.7879 16.1867C16.7951 16.3663 16.7919 16.547 16.7887 16.7274C16.7869 16.8275 16.7851 16.9275 16.7851 17.0271C16.7851 17.2768 16.654 17.4111 16.3973 17.4164C16.0848 17.4245 15.7695 17.4245 15.457 17.4191C15.1808 17.4137 15.0524 17.2634 15.0496 17.0056C15.0482 16.9036 15.0475 16.801 15.0468 16.6983C15.0461 16.5957 15.0454 16.4927 15.044 16.3908C15.0385 15.9397 15.0245 15.9209 14.5725 15.8511C13.9949 15.7625 13.4285 15.6363 12.8984 15.3893C12.4826 15.1933 12.438 15.094 12.558 14.6751C12.6473 14.3637 12.7366 14.0522 12.837 13.7434C12.9542 13.3863 13.0546 13.3407 13.3978 13.5125C13.9838 13.8052 14.606 13.969 15.2561 14.0468C15.6774 14.0979 16.0876 14.0576 16.4754 13.8938C17.2008 13.5877 17.3124 12.7796 16.7014 12.2936C16.4949 12.1271 16.2578 12.0063 16.0094 11.9016C15.8072 11.8154 15.6021 11.7359 15.3971 11.6565C14.9575 11.4862 14.5185 11.3162 14.1093 11.08C13.1355 10.5188 12.5161 9.74826 12.5887 8.60717C12.6696 7.3184 13.4285 6.51292 14.6562 6.08333L14.6823 6.07424C15.1641 5.90625 15.1668 5.90529 15.1696 5.40404C15.1708 5.3292 15.1704 5.25486 15.1701 5.18079C15.1696 5.08219 15.1692 4.98396 15.1724 4.88585C15.1835 4.50191 15.2505 4.43478 15.6467 4.42404C15.7286 4.42225 15.8104 4.42285 15.8922 4.42345C15.9331 4.42375 15.9741 4.42404 16.015 4.42404C16.4396 4.42404 16.6516 4.42404 16.7579 4.52607C16.8639 4.62788 16.8646 4.83129 16.866 5.23762C16.8688 5.81484 16.8688 5.81753 17.4659 5.90613C17.9235 5.97594 18.3588 6.10481 18.7829 6.2847C19.0145 6.38404 19.1037 6.53977 19.0312 6.77604C18.9919 6.90317 18.954 7.03065 18.9161 7.1581C18.8492 7.38326 18.7824 7.60834 18.7075 7.83122C18.5959 8.16147 18.4871 8.2098 18.1579 8.05676C17.4966 7.75067 16.8018 7.6218 16.0708 7.65939C15.8811 7.67013 15.6941 7.69429 15.5156 7.76947C14.885 8.03528 14.7818 8.70651 15.3203 9.11999Z" fill="white"/>
</svg>
