<svg width="33" height="32" viewBox="0 0 33 32" fill="none" xmlns="http://www.w3.org/2000/svg">
<path d="M12.4493 2.49769L10.3801 3.8488C10.3801 3.8488 10.3626 7.76175 16.5 10.2183C22.6374 7.72666 22.6199 3.8488 22.6199 3.8488L20.5507 2.49769C20.5507 2.49769 19.6564 4.02427 17.8502 4.60332L16.5 7.90213L15.1498 4.60332C13.3436 4.00672 12.4493 2.49769 12.4493 2.49769ZM9.02988 4.09446C6.82041 4.65596 4.4356 6.12989 3.03276 8.99003C4.4356 9.4287 6.66258 11.2185 6.66258 13.5522C9.71375 13.5522 12.0284 11.587 13.3261 10.0955C9.71376 7.7793 9.11756 4.9718 9.02988 4.09446ZM23.9701 4.09446C23.8824 4.9718 23.2862 7.76175 19.6739 10.0955C20.9715 11.587 23.2862 13.5522 26.3374 13.5522C26.3374 11.2185 28.5644 9.4287 29.9672 8.99003C28.5644 6.14744 26.1796 4.65596 23.9701 4.09446ZM14.5185 10.7623C14.5185 10.7623 11.9758 14.8507 7.25881 14.8507C6.32943 20.6938 8.81946 23.0802 8.81946 23.0802C8.81946 23.0802 11.3796 25.449 16.5 25.449C21.6203 25.449 24.1805 23.0802 24.1805 23.0802C24.1805 23.0802 26.6705 20.6762 25.7412 14.8507C21.0241 14.8507 18.4815 10.7623 18.4815 10.7623C18.0256 10.9904 16.5175 11.6396 16.5 11.6572C16.4824 11.6572 14.9744 11.0079 14.5185 10.7623ZM3.75172 10.9377C3.33087 11.8677 2.99768 15.6578 2.99768 16.8159C3.96213 17.0089 5.18963 17.5704 5.69816 18.2021C5.90858 12.3239 4.9792 11.7975 3.75172 10.9377ZM29.2483 10.9377C28.0383 11.7975 27.1089 12.3239 27.3018 18.2021C27.8103 17.5529 29.0378 17.0089 30.0023 16.8159C30.0023 15.6578 29.6691 11.8677 29.2483 10.9377ZM8.1005 24.2733L7.04837 26.3439C7.04837 26.3439 10.3626 29.5023 16.5 29.5023C22.6374 29.5023 25.9516 26.3439 25.9516 26.3439L24.8995 24.2733C24.163 24.8699 21.3573 26.8001 16.5 26.8001C11.6777 26.8176 8.87206 24.8875 8.1005 24.2733Z" fill="white"/>
</svg>
