<svg width="33" height="32" viewBox="0 0 33 32" fill="none" xmlns="http://www.w3.org/2000/svg">
<path fill-rule="evenodd" clip-rule="evenodd" d="M25.1713 17.3551C26.1805 15.7665 26.7599 13.8976 26.7599 11.8792C26.7599 10.87 26.5917 9.89818 26.2927 8.98242L25.6199 7.39385C23.8257 3.97376 20.1627 1.60026 16.4996 1.60026C12.8366 1.60026 9.17355 3.97376 7.37941 7.39385L6.7066 8.98242C6.40758 9.89818 6.23938 10.87 6.23938 11.8792C6.23938 13.8976 6.81874 15.7665 7.82794 17.3551C8.51943 18.383 7.75319 21.1116 7.02431 22.6441L16.4996 30.4L25.975 22.6441C25.2461 21.1116 24.4798 18.383 25.1713 17.3551ZM9.75347 16.364L8.78164 13.1308L9.79085 12.2524L15.4162 14.3829L14.949 17.0742L13.7155 16.9246L9.75347 16.364ZM17.5834 14.3829L18.0506 17.0742L23.2649 16.364L24.218 13.1308L23.2088 12.2524L17.5834 14.3829Z" fill="white"/>
</svg>
