<svg width="33" height="32" viewBox="0 0 33 32" fill="none" xmlns="http://www.w3.org/2000/svg">
<g clip-path="url(#clip0)">
<path fill-rule="evenodd" clip-rule="evenodd" d="M3.37569 26.1334C4.90738 26.1334 6.72194 25.0194 8.92563 22.7269C10.2092 21.3896 12.0414 20.6228 13.8413 20.6228H19.1587C20.9586 20.6228 22.7908 21.3896 24.0744 22.7269C26.2781 25.0194 28.0926 26.1334 29.6243 26.1334C30.6333 26.1334 31.4544 25.5665 31.9351 24.5378C32.2958 23.7673 32.5 22.7225 32.5 21.4345C32.5 16.1095 28.9833 5.8667 23.5999 5.8667C21.9751 5.8667 21.2161 6.3736 20.5463 6.82094L20.5448 6.82192C20.0201 7.17264 19.5089 7.50076 18.5326 7.67465L16.1218 7.70361H14.6708C13.5062 7.52421 12.9954 7.18342 12.4553 6.82198L12.4538 6.821C11.784 6.37366 11.0249 5.86676 9.40012 5.86676C4.01681 5.86676 0.5 16.1096 0.5 21.4345C0.5 25.6751 2.51781 26.1334 3.37569 26.1334ZM23.0625 15.9694C23.0625 16.4767 23.4823 16.8879 24 16.8879C24.5178 16.8879 24.9375 16.4767 24.9375 15.9694C24.9375 15.4622 24.5178 15.051 24 15.051C23.4823 15.051 23.0625 15.4622 23.0625 15.9694ZM26.8125 14.1326C26.8125 13.6254 26.3928 13.2142 25.875 13.2142C25.3573 13.2142 24.9375 13.6254 24.9375 14.1326C24.9375 14.6398 25.3573 15.051 25.875 15.051C26.3928 15.051 26.8125 14.6398 26.8125 14.1326ZM24.9375 12.2957C24.9375 11.7885 24.5178 11.3773 24 11.3773C23.4823 11.3773 23.0625 11.7885 23.0625 12.2957C23.0625 12.803 23.4823 13.2142 24 13.2142C24.5178 13.2142 24.9375 12.803 24.9375 12.2957ZM23.0625 14.1326C23.0625 13.6254 22.6428 13.2142 22.125 13.2142C21.6073 13.2142 21.1875 13.6254 21.1875 14.1326C21.1875 14.6398 21.6073 15.051 22.125 15.051C22.6428 15.051 23.0625 14.6398 23.0625 14.1326ZM18.375 13.2142H14.625C14.1068 13.2142 13.6875 13.625 13.6875 14.1326C13.6875 14.6402 14.1068 15.051 14.625 15.051H18.375C18.8932 15.051 19.3125 14.6402 19.3125 14.1326C19.3125 13.625 18.8932 13.2142 18.375 13.2142ZM8.0625 13.2142H7.125C6.60681 13.2142 6.1875 13.625 6.1875 14.1326C6.1875 14.6402 6.60681 15.051 7.125 15.051H8.0625V15.9694C8.0625 16.4771 8.48181 16.8879 9 16.8879C9.51819 16.8879 9.9375 16.4771 9.9375 15.9694V15.051H10.875C11.3932 15.051 11.8125 14.6402 11.8125 14.1326C11.8125 13.625 11.3932 13.2142 10.875 13.2142H9.9375V12.2957C9.9375 11.7881 9.51819 11.3773 9 11.3773C8.48181 11.3773 8.0625 11.7881 8.0625 12.2957V13.2142Z" fill="white"/>
</g>
<defs>
<clipPath id="clip0">
<rect width="32" height="32" fill="white" transform="translate(0.5)"/>
</clipPath>
</defs>
</svg>
