<svg width="33" height="32" viewBox="0 0 33 32" fill="none" xmlns="http://www.w3.org/2000/svg">
<path fill-rule="evenodd" clip-rule="evenodd" d="M3.5729 15.6502L3.43153 18.1718C3.4174 18.4234 3.41028 18.6726 3.41034 18.9123C3.41034 23.2088 5.49124 27.0282 8.69813 29.4159C9.10105 29.7159 9.52174 29.9933 9.95832 30.2463V29.9667C9.95832 27.6865 9.47054 25.9025 8.99883 24.1774L8.99869 24.1769C8.70919 23.1181 8.42994 22.095 8.25757 20.973C8.58357 21.1291 8.94838 21.2167 9.33332 21.2167C10.3298 21.2167 11.1916 20.6306 11.593 19.7851C12.0094 20.0954 12.5253 20.2792 13.0833 20.2792C13.4446 20.2792 13.7878 20.2016 14.0982 20.0632C14.0983 20.0634 14.0984 20.0637 14.0985 20.0639L14.0986 20.0642C14.0987 20.0644 14.0987 20.0645 14.0988 20.0647C14.5621 21.0582 15.3536 21.7962 16.2844 22.2103C15.0203 23.7888 14.3333 25.7347 14.3333 27.7867C14.3333 28.1319 14.6132 28.4117 14.9583 28.4117C15.3034 28.4117 15.5833 28.1319 15.5833 27.7867C15.5833 25.8339 16.3065 23.9926 17.6253 22.5678C18.4337 22.6507 19.2164 22.5062 19.913 22.1814L21.6124 21.3889C21.9253 21.2429 22.0606 20.871 21.9147 20.5582C21.7689 20.2455 21.397 20.11 21.0841 20.256L19.3848 21.0485C18.0169 21.686 16.418 21.2449 15.5527 20.0763L21.7268 17.1975C22.3398 16.9114 23.0887 17.1617 23.3884 17.8027L24.6231 20.4503C25.1921 21.6712 24.9173 23.114 23.9391 24.0405L20.1536 27.6248C20.0289 27.7428 19.9583 27.9069 19.9583 28.0786V31.5374C19.9644 31.5358 19.9704 31.5341 19.9765 31.5324C19.9779 31.532 19.9794 31.5316 19.9808 31.5312C20.0033 31.525 20.0258 31.5187 20.0483 31.5124C20.4428 31.4012 20.8298 31.2719 21.2083 31.1255C26.1067 29.2311 29.5898 24.4711 29.5898 18.9123C29.5898 17.7761 29.4433 16.6462 29.1541 15.554L28.6279 13.5669L27.4727 15.264C27.4569 15.2867 26.8513 16.147 25.6386 17.1274C25.6552 15.5815 25.5435 13.2958 24.9505 10.8832C23.5397 5.14381 20.0811 1.499 14.9486 0.34275L13.427 0L13.8369 1.50487C14.8032 5.05106 14.6103 7.35844 14.2785 8.66963C13.9227 10.0754 13.2292 11.0519 12.376 11.3488C11.2678 11.7345 10.0753 10.8689 9.33834 9.14356L8.69946 7.64781L7.7244 8.94969C5.40059 12.0524 5.23315 14.9685 5.50203 16.8685C5.57972 17.4171 5.69728 17.9146 5.8289 18.3507C5.49584 18.0937 5.23484 17.8117 5.11228 17.6524L3.5729 15.6502ZM9.33332 13.7167C10.0226 13.7167 10.5833 14.2775 10.5833 14.9667V18.7167C10.5833 19.406 10.0226 19.9667 9.33332 19.9667C8.64407 19.9667 8.08332 19.406 8.08332 18.7167V14.9667C8.08332 14.2775 8.64407 13.7167 9.33332 13.7167ZM13.0833 12.7792C13.7726 12.7792 14.3333 13.34 14.3333 14.0292V17.7792C14.3333 18.4685 13.7726 19.0292 13.0833 19.0292C12.3941 19.0292 11.8333 18.4685 11.8333 17.7792V14.0292C11.8333 13.34 12.3941 12.7792 13.0833 12.7792ZM16.8333 11.8417C17.5226 11.8417 18.0833 12.4025 18.0833 13.0917V17.5172L15.3733 18.7807C15.508 18.4739 15.5833 18.1352 15.5833 17.7792V13.0917C15.5833 12.4025 16.1441 11.8417 16.8333 11.8417ZM20.5833 11.8417C21.2726 11.8417 21.8333 12.4025 21.8333 13.0917V15.8663C21.6149 15.9038 21.4013 15.97 21.1983 16.0649L19.3333 16.9344V13.0917C19.3333 12.4025 19.8941 11.8417 20.5833 11.8417Z" fill="white"/>
</svg>
