<?xml version="1.0" encoding="utf-8"?>
<!-- Generator: Adobe Illustrator 24.0.0, SVG Export Plug-In . SVG Version: 6.00 Build 0)  -->
<svg version="1.1" id="Layer_1" xmlns="http://www.w3.org/2000/svg" xmlns:xlink="http://www.w3.org/1999/xlink" x="0px" y="0px"
	 viewBox="0 0 30 22" style="enable-background:new 0 0 30 22;" xml:space="preserve">
<style type="text/css">
	.st0{fill:#FFFFFF;}
</style>
<g>
	<path class="st0" d="M8.3,0.6v8.3H8.3C7.1,7.4,5,7,3.3,8C3.1,8.2,3,8.4,2.9,8.7c-0.5,1.2-0.4,2.6,0.3,3.6H2.6
		c-0.9,0.1-1.7,0.1-2.6,0V4.9c0-1.7,0-3.1,0.9-3.8C2.2,0.2,6.1,0.6,8.3,0.6z"/>
	<path class="st0" d="M11.7,0.6h12.7c2,0,4.1-0.2,5,1C30,2.3,30,3.7,30,5.2v7.2c-4.4,0-8.7,0-13.1,0v-0.1c0.6-0.9,0.8-2.1,0.5-3.2
		c-0.3-0.8-1.1-1.4-1.9-1.6c-1.7-0.4-2.9,0.9-3.7,1.5V0.6z"/>
	<path class="st0" d="M8.4,13.3c-1.5,0-3.1-0.5-3.6-1.6c-0.4-0.7-0.2-1.6,0.4-2.2c0.5-0.2,1.1-0.2,1.6,0.1
		C7.8,10.2,8.4,11.7,8.4,13.3z"/>
	<path class="st0" d="M13.9,9.4c1.6,0,2.1,1.4,1.3,2.6c-0.6,0.9-2.1,1.3-3.5,1.3v-0.1c0.1-0.1,0-0.3,0.1-0.5
		c0.1-0.6,0.2-1.2,0.4-1.8c0.2-0.6,0.7-1,1.2-1.3L13.9,9.4z"/>
	<path class="st0" d="M0.1,15.7h4.1l0,0C3.7,16,3.3,16.4,3,16.9c0.6,0.5,1.1,1,1.6,1.7c0.3,0.4,0.8,0.6,1,1.1l0,0v0
		c1-0.7,1.7-1.9,2.7-2.5v4.3H4c-0.7,0.1-1.5,0-2.2-0.1c-0.6-0.2-1-0.6-1.4-1.1C-0.2,19.3,0,17.2,0.1,15.7z"/>
	<path class="st0" d="M30,15.7c0,2.1,0.2,4.3-0.9,5.2s-3.3,0.5-5.1,0.5H11.8v-4.5h0.1c0.5,0.7,1.3,1.2,1.8,1.9
		c0.2,0.3,0.4,0.6,0.8,0.8c0.7-1,2-1.6,2.7-2.6c-0.4-0.4-0.8-0.8-1.2-1.3H30z"/>
</g>
</svg>
