<svg width="32" height="32" viewBox="0 0 32 32" fill="none" xmlns="http://www.w3.org/2000/svg">
<path d="M29.954 24.0411V15.0585L18.8197 20.1863V30.3628L28.7425 25.8429C29.4842 25.5051 29.954 24.8063 29.954 24.0411Z" fill="white"/>
<path d="M29.9537 13.8941L18.8248 18.9813C18.6989 15.7648 20.4712 12.0163 23.964 10.4396C29.826 7.79344 29.9537 11.886 29.9537 13.8941Z" fill="white"/>
<path fill-rule="evenodd" clip-rule="evenodd" d="M2.16002 11.8191C1.44857 8.88449 4.09386 2.84192 9.31928 1.7939C10.5878 1.53948 11.8751 1.92079 13.0521 2.45785L26.3805 8.53916C23.6333 8.87387 17.4154 12.2207 17.7045 18.9814L12.4101 16.542V15.6958C12.4101 15.2146 12.1311 14.7704 11.6794 14.5323L9.87184 13.5797C9.02111 13.1314 7.98861 13.5807 7.75776 14.3983L2.16002 11.8191ZM12.2873 17.7055C11.9628 18.3828 11.0543 18.7263 10.2786 18.3396L8.47099 17.4386C8.00259 17.2051 7.7105 16.7523 7.7105 16.2598V15.576L2.046 12.9405V21.9327C2.046 22.6942 2.51112 23.3901 3.2471 23.7298L17.6146 30.3627V20.1841L12.2873 17.7055Z" fill="white"/>
</svg>
