<svg width="32" height="32" viewBox="0 0 32 32" fill="none" xmlns="http://www.w3.org/2000/svg">
<path d="M22.7608 24.5739H25.6717C26.2647 24.5739 26.8397 24.1016 26.8397 23.5282V16.9768C26.8397 16.4202 27.235 15.8973 27.828 15.8973H29.6788C30.5772 15.8973 31.0983 14.9528 30.5415 14.2781L24.9891 7.81819C24.5579 7.29533 23.7133 7.29533 23.2821 7.81819L21.0466 10.5041L17.8914 14.295C17.3344 14.9528 17.8375 15.8973 18.736 15.8973H20.5867C21.1797 15.8973 21.593 16.4202 21.593 16.9768V20.3828V23.545C21.6108 24.1016 22.1499 24.5739 22.7608 24.5739Z" fill="white"/>
<path fill-rule="evenodd" clip-rule="evenodd" d="M11.2398 27.2398C14.9967 27.2398 18.323 25.3966 20.3639 22.5651V17.1264H18.736C17.835 17.1264 17.0647 16.6417 16.6815 15.9176C16.2918 15.1812 16.333 14.2373 16.9495 13.5054L20.3516 9.41781C18.3097 6.59603 14.9891 4.76022 11.2398 4.76022C5.03222 4.76022 0 9.79244 0 16C0 22.2076 5.03222 27.2398 11.2398 27.2398ZM10.5433 14.1534C10.8234 14.3679 11.1406 14.5219 11.4721 14.6539L11.6664 14.7313C12.1739 14.9329 12.6824 15.1349 13.1639 15.3909C14.8956 16.3121 15.3615 18.4049 14.1384 19.8348C13.6983 20.3518 13.1267 20.6983 12.4551 20.8743C12.1637 20.9513 12.0322 21.0998 12.0465 21.3913C12.0538 21.5752 12.0506 21.7603 12.0473 21.9451C12.0454 22.0476 12.0436 22.15 12.0436 22.252C12.0436 22.5078 11.9093 22.6453 11.6464 22.6508C11.3263 22.659 11.0034 22.659 10.6833 22.6535C10.4004 22.648 10.269 22.494 10.2661 22.23C10.2647 22.1256 10.264 22.0204 10.2633 21.9153C10.2625 21.8102 10.2618 21.7047 10.2604 21.6003C10.2547 21.1383 10.2404 21.119 9.77745 21.0475C9.18589 20.9568 8.60577 20.8275 8.0628 20.5746C7.637 20.3738 7.59128 20.2721 7.71416 19.8431C7.80561 19.5241 7.89706 19.2051 7.99994 18.8888C8.11996 18.5231 8.22284 18.4763 8.57434 18.6523C9.17446 18.9521 9.81174 19.1198 10.4776 19.1996C10.9091 19.2518 11.3292 19.2106 11.7264 19.0428C12.4694 18.7293 12.5837 17.9016 11.9579 17.4039C11.7464 17.2334 11.5035 17.1096 11.2492 17.0024C11.042 16.9141 10.8319 16.8327 10.622 16.7514C10.1717 16.577 9.72211 16.4028 9.30306 16.1609C8.30571 15.5862 7.67129 14.7969 7.74559 13.6282C7.82847 12.3082 8.60577 11.4833 9.86318 11.0433L9.88989 11.0339C10.3834 10.8619 10.3862 10.8609 10.389 10.3475C10.3902 10.2709 10.3899 10.1947 10.3895 10.1189C10.3891 10.0179 10.3886 9.91727 10.3919 9.81679C10.4033 9.42355 10.4719 9.3548 10.8777 9.3438C10.9615 9.34197 11.0453 9.34258 11.1291 9.34319C11.171 9.34349 11.213 9.3438 11.2549 9.3438C11.6897 9.3438 11.9069 9.3438 12.0158 9.4483C12.1244 9.55257 12.1251 9.76091 12.1265 10.1771C12.1294 10.7683 12.1294 10.771 12.7409 10.8618C13.2096 10.9333 13.6554 11.0653 14.0898 11.2495C14.327 11.3513 14.4184 11.5108 14.3441 11.7527C14.3038 11.883 14.265 12.0135 14.2263 12.144C14.1577 12.3747 14.0893 12.6052 14.0126 12.8335C13.8983 13.1717 13.7868 13.2212 13.4496 13.0645C12.7724 12.751 12.0608 12.619 11.312 12.6575C11.1177 12.6685 10.9263 12.6932 10.7434 12.7702C10.0975 13.0425 9.99178 13.73 10.5433 14.1534Z" fill="white"/>
</svg>
